<?xml version="1.0" encoding="iso-8859-1"?>
<!-- Generator: Adobe Illustrator 18.0.0, SVG Export Plug-In . SVG Version: 6.00 Build 0)  -->
<!DOCTYPE svg PUBLIC "-//W3C//DTD SVG 1.1//EN" "http://www.w3.org/Graphics/SVG/1.1/DTD/svg11.dtd">
<svg version="1.1" id="Capa_1" xmlns="http://www.w3.org/2000/svg" xmlns:xlink="http://www.w3.org/1999/xlink" x="0px" y="0px"
	 viewBox="0 0 360.855 360.855" style="enable-background:new 0 0 360.855 360.855;" xml:space="preserve">
<g>
	<path d="M180.428,197.204c24.125,0,80.846-29.034,80.846-98.603c0-9.704-0.236-19.078-1.036-27.935
		c-1.313-17.431-4.883-32.879-13.772-44.718C235.064,9.837,215.116,0,180.428,0c-34.682,0-54.629,9.833-66.031,25.939
		c-8.895,11.842-12.467,27.294-13.779,44.731c-0.799,8.856-1.035,18.229-1.035,27.932
		C99.582,168.17,156.303,197.204,180.428,197.204z M206.817,36.123c-2.354,5.951-3.534,8.927-5.89,14.877
		c-15.209-4.297-25.791-4.297-41,0c-2.355-5.95-3.535-8.926-5.891-14.877C173.057,30.365,187.799,30.366,206.817,36.123z
		 M111.609,83.517c0.932,2.037,4.889,9.87,11.014,10.604c7.041,0.845,18.728-24.935,57.805-24.998
		c39.076,0.063,50.764,25.843,57.805,24.998c6.125-0.735,10.082-8.567,11.014-10.604c0.189,4.992,0.259,10.046,0.259,15.085
		c0,34.005-15.015,55.075-27.612,66.762c-15.871,14.727-33.493,20.072-41.465,20.072s-25.594-5.345-41.465-20.072
		c-12.598-11.687-27.612-32.757-27.612-66.762C111.351,93.563,111.42,88.509,111.609,83.517z"/>
	<path d="M330.52,298.327c-4.128-25.664-12.624-58.724-29.668-70.472c-11.64-8.026-52.248-29.721-69.589-38.985l-0.293-0.156
		c-1.982-1.059-4.403-0.846-6.169,0.541c-9.084,7.131-19.034,11.937-29.574,14.284c-1.862,0.415-3.391,1.738-4.066,3.521
		l-10.733,28.291l-10.734-28.291c-0.675-1.783-2.203-3.106-4.066-3.521c-10.539-2.347-20.489-7.153-29.572-14.284
		c-1.77-1.388-4.189-1.6-6.171-0.541c-17.134,9.156-58.239,31.294-69.829,39.107c-19.621,13.217-28.199,61.052-29.72,70.507
		c-0.15,0.938-0.063,1.897,0.253,2.793c0.416,1.174,6.905,17.982,39.357,31.496c1.871-2.358,4.363-4.146,7.166-5.152
		c-3.482-1.236-6.504-3.659-8.437-6.911c-2.88-4.846-2.987-10.927-0.286-15.858c8.32-15.23,24.254-24.706,41.604-24.729
		c16.138,0,30.767,8.019,39.454,21.053h61.926c1.7-2.539,3.65-4.914,5.838-7.109c8.95-8.976,20.857-13.928,33.529-13.946h0.01h0.01
		c17.336,0,33.29,9.424,41.639,24.602c2.706,4.926,2.615,10.995-0.248,15.857c-1.922,3.253-4.936,5.684-8.414,6.931
		c2.852,1.01,5.383,2.825,7.268,5.224c32.369-13.507,38.848-30.284,39.264-31.456C330.584,300.224,330.671,299.264,330.52,298.327z"
		/>
	<path d="M278.414,340.434h-0.004l-29.836,0.041c-0.529-1.256-1.545-4.744-1.555-13.065c-0.014-8.322,0.99-11.816,1.518-13.075
		l29.828-0.044c0.713-0.004,1.371-0.379,1.732-0.992c0.363-0.615,0.373-1.371,0.031-1.995
		c-5.885-10.698-17.115-17.342-29.369-17.342c-8.934,0.013-17.326,3.505-23.633,9.831c-3.25,3.258-5.73,7.074-7.383,11.225h-78.668
		c-4.939-12.315-16.992-21.053-31.082-21.053c-12.217,0.017-23.451,6.699-29.318,17.441c-0.342,0.624-0.328,1.383,0.035,1.994
		c0.363,0.611,1.021,0.984,1.732,0.984h0.002l29.836-0.047c0.531,1.256,1.545,4.744,1.555,13.068
		c0.014,8.323-0.99,11.815-1.518,13.072l-29.828,0.045c-0.711,0.001-1.369,0.379-1.732,0.99c-0.361,0.613-0.373,1.372-0.029,1.996
		c5.883,10.697,17.117,17.346,29.318,17.346h0.049c8.936-0.014,17.326-3.506,23.635-9.833c3.25-3.26,5.729-7.077,7.381-11.228
		h78.666c4.94,12.319,16.984,21.056,31.039,21.058c0,0,0.045,0,0.047,0c12.215-0.017,23.451-6.703,29.318-17.438
		c0.342-0.625,0.328-1.385-0.035-1.995C279.783,340.807,279.125,340.434,278.414,340.434z"/>
</g>
<g>
</g>
<g>
</g>
<g>
</g>
<g>
</g>
<g>
</g>
<g>
</g>
<g>
</g>
<g>
</g>
<g>
</g>
<g>
</g>
<g>
</g>
<g>
</g>
<g>
</g>
<g>
</g>
<g>
</g>
</svg>
