<?xml version="1.0" encoding="iso-8859-1"?>
<!-- Generator: Adobe Illustrator 19.0.0, SVG Export Plug-In . SVG Version: 6.00 Build 0)  -->
<svg version="1.1" id="Capa_1" xmlns="http://www.w3.org/2000/svg" xmlns:xlink="http://www.w3.org/1999/xlink" x="0px" y="0px"
	 viewBox="0 0 496 496" style="enable-background:new 0 0 496 496;" xml:space="preserve">
<g>
	<g>
		<g>
			<path d="M472,0h-24H288H171.528c-10.344,0-19.496,6.592-22.776,16.408L146.232,24H120c-13.232,0-24,10.768-24,24v10.36
				C72.904,65.264,56,86.688,56,112c0,16.712,7.4,31.696,19.048,41.968c-17.896,13.608-30.144,33.72-33.752,56.064
				C17.544,216.504,0,238.216,0,264c0,30.872,25.128,56,56,56v48h36.04c2.976,11.56,7.568,22.616,13.712,32.984l-25.512,25.52
				l45.256,45.256l25.52-25.512c10.368,6.144,21.424,10.736,32.984,13.712V496h64v-36.04c11.56-2.976,22.616-7.568,32.984-13.712
				l25.52,25.512l45.256-45.256l-25.512-25.52c6.144-10.368,10.736-21.424,13.712-32.984H376v-64h-36.04
				c-2.976-11.56-7.568-22.616-13.712-32.984L349.256,248H448V144v-16h24c13.232,0,24-10.768,24-24V24C496,10.768,485.232,0,472,0z
				 M360,16c13.232,0,24,10.768,24,24s-10.768,24-24,24s-24-10.768-24-24S346.768,16,360,16z M304,16h24.208
				C323.128,22.704,320,30.96,320,40c0,22.056,17.944,40,40,40c9.04,0,17.296-3.128,24-8.208V128h-80V16z M238.528,16
				c-3.312,9.288-12.112,16-22.528,16s-19.216-6.712-22.528-16H238.528z M72,112c0-22.056,17.944-40,40-40c22.056,0,40,17.944,40,40
				c0,22.056-17.944,40-40,40c-8.2,0-15.832-2.496-22.184-6.752l-0.216-0.44c-0.08,0.04-0.144,0.088-0.224,0.128
				C78.904,137.712,72,125.656,72,112z M89.488,163.24c2.104,0.928,4.28,1.736,6.512,2.408v59.248
				c-10.008-10.2-23.68-16.296-38.2-16.768C62,189.68,73.48,173.432,89.488,163.24z M56,304c-22.056,0-40-17.944-40-40
				c0-22.056,17.944-40,40-40c12.072,0,23.424,5.56,30.96,14.768l-6.728,6.728l25.512,25.52C99.6,281.384,95.008,292.44,92.032,304
				H64H56z M328,246.632l-22.192,22.192l3.608,5.448c8,12.088,13.504,25.312,16.336,39.32l1.304,6.408H360v32h-32.944l-1.304,6.408
				c-2.832,14.008-8.336,27.232-16.336,39.32l-3.608,5.448l23.336,23.336l-22.632,22.632l-23.336-23.336l-5.448,3.608
				c-12.088,8-25.312,13.504-39.32,16.336L232,447.056V480h-32v-32.944l-6.408-1.304c-14.008-2.832-27.232-8.336-39.32-16.336
				l-5.448-3.608l-23.336,23.336l-22.632-22.632l23.336-23.336l-3.608-5.448c-8-12.088-13.504-25.312-16.336-39.32L104.944,352H72
				v-32h32.944l1.304-6.408c2.832-14.008,8.336-27.232,16.336-39.32l3.608-5.448l-23.336-23.336l22.632-22.632l23.336,23.336
				l5.448-3.608c12.088-8,25.312-13.504,39.32-16.336l6.408-1.304V192h32v32.944l6.408,1.304
				c14.008,2.832,27.232,8.336,39.32,16.336l5.448,3.608l23.336-23.336L328,244.352V246.632z M432,232h-93.728l-31.768-31.768
				l-25.52,25.512C270.616,219.6,259.56,215.008,248,212.032V176h-64v36.04c-11.56,2.976-22.616,7.568-32.984,13.712l-25.52-25.512
				L112,213.728V168c30.872,0,56-25.128,56-56s-25.128-56-56-56v-8c0-4.416,3.584-8,8-8h37.768l6.168-18.528
				c1.096-3.28,4.152-5.472,7.592-5.472h5.28c3.72,18.232,19.88,32,39.192,32s35.472-13.768,39.192-32H288v88.208
				C281.296,99.128,273.04,96,264,96c-22.056,0-40,17.944-40,40c0,22.056,17.944,40,40,40c19.312,0,35.472-13.768,39.192-32H432V232
				z M288,136c0,13.232-10.768,24-24,24s-24-10.768-24-24s10.768-24,24-24S288,122.768,288,136z M480,104c0,4.416-3.584,8-8,8h-24
				V96h-16v16v16h-32V40c0-9.04-3.128-17.296-8.208-24H432v64h16V16h24c4.416,0,8,3.584,8,8V104z"/>
			<path d="M56,240c-13.232,0-24,10.768-24,24s10.768,24,24,24s24-10.768,24-24S69.232,240,56,240z M56,272c-4.416,0-8-3.584-8-8
				c0-4.416,3.584-8,8-8s8,3.584,8,8C64,268.416,60.416,272,56,272z"/>
			<path d="M112,136c13.232,0,24-10.768,24-24s-10.768-24-24-24s-24,10.768-24,24S98.768,136,112,136z M112,104c4.416,0,8,3.584,8,8
				s-3.584,8-8,8s-8-3.584-8-8S107.584,104,112,104z"/>
			<path d="M216,256c-44.112,0-80,35.888-80,80s35.888,80,80,80c15.168,0,29.944-4.272,42.728-12.36l-8.56-13.512
				C239.952,396.584,228.144,400,216,400c-35.288,0-64-28.712-64-64c0-35.288,28.712-64,64-64c35.288,0,64,28.712,64,64
				c0,17.008-6.6,33.016-18.584,45.096l11.36,11.264C287.752,377.272,296,357.256,296,336C296,291.888,260.112,256,216,256z"/>
			<path d="M216,288c-26.472,0-48,21.528-48,48s21.528,48,48,48s48-21.528,48-48S242.472,288,216,288z M216,368
				c-17.648,0-32-14.352-32-32s14.352-32,32-32s32,14.352,32,32S233.648,368,216,368z"/>
		</g>
	</g>
</g>
<g>
</g>
<g>
</g>
<g>
</g>
<g>
</g>
<g>
</g>
<g>
</g>
<g>
</g>
<g>
</g>
<g>
</g>
<g>
</g>
<g>
</g>
<g>
</g>
<g>
</g>
<g>
</g>
<g>
</g>
</svg>
