<svg id="Capa_1" enable-background="new 0 0 512.013 512.013" height="512" viewBox="0 0 512.013 512.013" width="512" xmlns="http://www.w3.org/2000/svg"><path d="m453.284 182.995h-33.099v-34.607c0-16.626-13.548-30.151-30.201-30.151h-32.18c1.184-1.017 2.338-2.082 3.457-3.198 34.515-34.429 20.613-101.271 20.005-104.099-.828-3.847-3.835-6.851-7.683-7.675-2.835-.607-69.811-14.469-104.311 19.946-5.615 5.601-9.949 12.061-13.267 18.962-3.318-6.902-7.652-13.361-13.267-18.962-34.498-34.414-101.474-20.553-104.309-19.946-3.848.824-6.855 3.828-7.683 7.675-.608 2.828-14.51 69.67 20.005 104.099 1.119 1.116 2.273 2.181 3.457 3.198h-32.18c-16.653 0-30.202 13.525-30.202 30.151v34.607h-33.097c-5.523 0-10 4.478-10 10v54.693c0 5.522 4.477 10 10 10h33.098v28.287h-1.051c-2.648 0-5.188 1.05-7.062 2.92l-19.538 19.489c-1.881 1.876-2.938 4.424-2.938 7.08v87.631c-2.07 1.832-3.376 4.509-3.376 7.49v40.921c0 5.522 4.477 10 10 10h10.755v40.506c0 5.523 4.477 10 10 10h67.899c5.523 0 10-4.477 10-10v-40.506h178.979v40.506c0 5.523 4.478 10 10 10h67.899c5.522 0 10-4.477 10-10v-40.506h10.755c5.522 0 10-4.478 10-10v-40.921c0-2.981-1.306-5.657-3.375-7.49v-87.632c0-2.656-1.057-5.204-2.938-7.08l-19.538-19.489c-1.875-1.87-4.415-2.92-7.063-2.92h-1.052v-28.287h33.099c5.522 0 10-4.478 10-10v-54.693c.002-5.521-4.476-9.999-9.998-9.999zm-169.886-145.624c21.44-21.388 63.264-17.94 79.417-15.647 2.299 16.124 5.738 57.792-15.679 79.154-13.694 13.66-35.703 17.188-54.028 17.358h-2.858c-3.412-.031-6.668-.172-9.683-.374l26.532-26.465 24.859-.002c5.522 0 9.999-4.478 9.999-10.001 0-5.522-4.478-9.999-10.001-9.999h-4.806l11.546-11.517c3.91-3.9 3.918-10.232.018-14.143-3.901-3.909-10.231-3.917-14.143-.017l-11.607 11.578v-4.82c0-5.523-4.477-10.001-9.999-10.001-.001 0-.001 0-.001 0-5.522 0-10 4.477-10 9.999l-.002 24.773-26.632 26.566c-.183-2.883-.298-5.919-.321-9.053.009-.919.011-1.849.005-2.789.209-19.172 4.075-41.324 17.384-54.6zm-118.522 63.507c-21.418-21.364-17.976-63.038-15.679-79.154 16.16-2.295 57.981-5.735 79.418 15.647 13.648 13.613 17.202 35.473 17.39 53.712-.014 1.195-.015 2.374-.004 3.535-.041 3.216-.178 6.288-.371 9.143l-26.58-26.514-.001-24.773c0-5.522-4.477-9.999-10-9.999s-10 4.478-10 10.001v4.82l-11.607-11.578c-3.91-3.901-10.242-3.893-14.142.017s-3.892 10.242.018 14.143l11.546 11.517h-4.807s0 0-.001 0c-5.522 0-9.999 4.477-10 9.999-.001 5.523 4.477 10.001 9.999 10.001l24.859.002 26.531 26.465c-3.007.202-6.252.342-9.653.374h-2.921c-18.32-.174-40.31-3.708-53.995-17.358zm-42.847 37.358h267.955c5.625 0 10.201 4.554 10.201 10.151v17.867h-288.358v-17.867c0-5.597 4.577-10.151 10.202-10.151zm-53.3 99.453v-34.693h23.098v34.693zm77.788 254.324h-47.899v-30.506h47.899zm266.878 0h-47.899v-30.506h47.899zm20.755-50.506h-356.287v-20.921h356.287zm-244.283-40.921h-57.201v-21.332h57.201zm185.611 0h-57.201v-21.332h57.201zm55.297-80.972v80.972h-35.297v-31.332c0-5.522-4.478-10-10-10h-77.201c-5.522 0-10 4.478-10 10v31.332h-88.41v-31.332c0-5.522-4.477-10-10-10h-77.201c-5.523 0-10 4.478-10 10v31.332h-31.428v-80.972l13.673-13.639h322.191zm-318.948-33.638v-99.721h288.358v99.721zm331.457-48.287h-23.099v-34.693h23.099z"/></svg>